<svg width="49" height="49" viewBox="0 0 49 49" fill="none" xmlns="http://www.w3.org/2000/svg">
<path fill-rule="evenodd" clip-rule="evenodd" d="M7.7586 42.3882C17.3635 51.3882 32.4481 51.2001 41.8241 41.8241C43.9589 39.6894 45.6172 37.2586 46.7994 34.6641C32.2711 43.4978 19.7723 44.8572 9.65321 42.7775L7.7586 42.3882ZM48.9985 24.7726C49.0688 18.4119 46.6774 12.0291 41.8241 7.17589C37.2805 2.63226 31.3961 0.246254 25.4446 0.0180756C14.2913 14.9684 12.1489 27.1138 13.3905 36.3167C22.4512 37.539 34.3642 35.481 48.9985 24.7726ZM15.8801 1.56009C12.706 2.75064 9.72923 4.62255 7.17588 7.17589C-2.39196 16.7437 -2.39198 32.2563 7.17588 41.8241C7.22491 41.8732 7.27406 41.9219 7.32341 41.9704L6.92948 40.0538C4.78572 29.6231 6.29621 16.6641 15.8801 1.56009Z" fill="url(#paint0_linear_27_14)"/>
<defs>
<linearGradient id="paint0_linear_27_14" x1="7.17588" y1="41.8241" x2="41.8241" y2="7.17589" gradientUnits="userSpaceOnUse">
<stop stop-color="#6788F4"/>
<stop offset="1" stop-color="#1FFBF9"/>
</linearGradient>
</defs>
</svg>
