<svg width="48" height="48" viewBox="0 0 48 48" fill="none" xmlns="http://www.w3.org/2000/svg">
<path d="M12 16C12 9.37258 17.3726 4 24 4H36V16C36 22.6274 30.6274 28 24 28V28C17.3726 28 12 22.6274 12 16V16Z" fill="white"/>
<path d="M6 41.8462C6 41.0605 6 40.6676 6.02007 40.3358C6.35591 34.7837 10.7837 30.3559 16.3358 30.0201C16.6676 30 17.0605 30 17.8462 30H30.1538C30.9395 30 31.3324 30 31.6642 30.0201C37.2163 30.3559 41.6441 34.7837 41.9799 40.3358C42 40.6676 42 41.0605 42 41.8462V41.8462C42 41.989 42 42.0604 41.9964 42.1208C41.9353 43.1302 41.1302 43.9353 40.1208 43.9964C40.0604 44 39.989 44 39.8462 44H8.15385C8.01099 44 7.93957 44 7.87924 43.9964C6.86975 43.9353 6.06471 43.1302 6.00365 42.1208C6 42.0604 6 41.989 6 41.8462V41.8462Z" fill="white"/>
</svg>
