<svg width="48" height="48" viewBox="0 0 48 48" fill="none" xmlns="http://www.w3.org/2000/svg">
<path fill-rule="evenodd" clip-rule="evenodd" d="M10.8347 38.6203L5.13925 16.7876C4.16095 13.0374 8.55385 10.2269 11.5487 12.687L15.2699 15.7437C15.6916 16.0901 16.3132 16.0344 16.6666 15.6186L22.2439 9.05706C23.4419 7.64765 25.6176 7.64765 26.8156 9.05705L32.3692 15.5907C32.7319 16.0174 33.3743 16.0631 33.7937 15.6921L36.6557 13.1603C39.5727 10.5798 44.0824 13.2659 43.2026 17.0598L38.2093 38.5938C38.1042 39.047 37.7004 39.3679 37.2351 39.3679H11.8024C11.3473 39.3679 10.9496 39.0606 10.8347 38.6203ZM31.0298 31.3679H17.0298V34.3679H31.0298V31.3679Z" fill="white"/>
</svg>
