<svg width="48" height="48" viewBox="0 0 48 48" fill="none" xmlns="http://www.w3.org/2000/svg">
<path fill-rule="evenodd" clip-rule="evenodd" d="M24 42C33.9411 42 42 33.9411 42 24C42 14.0589 33.9411 6 24 6C14.0589 6 6 14.0589 6 24C6 33.9411 14.0589 42 24 42ZM26.2038 17.7407C26.0971 17.4513 25.8241 17.2566 25.5157 17.2502C25.2073 17.2437 24.9263 17.4268 24.8077 17.7115L20.438 28.1989L18.1708 23.6646C18.0585 23.4399 17.841 23.2863 17.5916 23.2556C17.3423 23.2249 17.0941 23.3211 16.9306 23.5119L14.155 26.75H12.5C12.0858 26.75 11.75 27.0858 11.75 27.5C11.75 27.9142 12.0858 28.25 12.5 28.25H14.5C14.7189 28.25 14.927 28.1543 15.0694 27.9881L17.3343 25.3457L19.8292 30.3354C19.9604 30.5978 20.2326 30.7597 20.5258 30.7496C20.819 30.7395 21.0795 30.5593 21.1923 30.2885L25.4571 20.053L28.2962 27.7593C28.4049 28.0541 28.6858 28.25 29 28.25H36C36.4142 28.25 36.75 27.9142 36.75 27.5C36.75 27.0858 36.4142 26.75 36 26.75H29.523L26.2038 17.7407Z" fill="white"/>
</svg>
